<svg width="1000" height="1000" viewBox="0 0 1000 1000" fill="none" xmlns="http://www.w3.org/2000/svg">
<rect width="1000" height="1000" rx="136" fill="#186DFB"/>
<path d="M451.894 246.979L521.953 366.232L590.19 326.383L514.371 196.433H324.765L149.5 500.002L193.522 576.291L378.015 246.979H451.894Z" fill="white"/>
<path d="M400.678 673.795L538.739 673.559L468.151 556.363L400.678 673.795Z" fill="white"/>
<path d="M604.1 350.244L604.629 527.096H707.25L604.1 350.244Z" fill="white"/>
<path d="M315.677 486.838L470.547 396.266L418.355 307.341L315.677 486.838Z" fill="white"/>
<path d="M325.203 685.43L399.846 555.539H276.302L229.166 637.882L324.791 803.567H675.321L713.701 736.976L353.297 737.034L325.203 685.43Z" fill="white"/>
<path d="M675.293 196.433H589.6L779.089 521.279L740.944 586.636H604.823L605.117 673.328L750.584 673.093L850.5 500.002L675.293 196.433Z" fill="white"/>
<path d="M549.686 413.376L399.87 500.891H498.611L550.215 586.643L549.686 413.376Z" fill="white"/>
</svg>
